<svg id="Layer_3" data-name="Layer 3" xmlns="http://www.w3.org/2000/svg" viewBox="0 0 503.97 407.08"><defs><style>.cls-1{fill:#e5d3dc;}</style></defs><path class="cls-1" d="M28,185s4-14,33.15-11c29.53,3,51.32-41.07,71.35-55.5,7-5,14.5-9.5,22.5-9.5,7.07,0,23.54-.78,31,16,4,9,1,21,0,27-1.82,10.9-5,29-21,57-4.71,8.24,1,3,6-3,10.88-13.06,42.07-65.67,76-89,23.78-16.36,53.07-4.76,61,23,2,7,2,7,3,16,6.32,56.87-31.13,139.87-44,162-6.07,10.45,9,24,27,8a203.58,203.58,0,0,0,64-94c14-43-6.09-116.77,37-118,35-1,33,35,33,48,0,10-6.07,59.49-37,138-13,33,18,61,54,16,10.91-13.64,22-43,16-98-1.87-17.11-6-35-8-51-3.46-27.69,4-58,32-58,66.68.06,48,151,19,208-26.78,52.64-89.5,161.5-184.5,192.5s-139.5-56.5-84-77C270,419.75,307,495,366,452c15-10.94,29.22-33.36,35-45,9.48-19.08,11-27-9-22-20.58,5.14-68.63-5.28-52-54,14-41-4.23-28.16-19-6-54,81-126.21,77.9-99,11,22.46-55.22,45.72-119.73,27.5-136.5C228.25,179.94,169.9,251.24,163,313c-3.68,32.91,0,78-49,72-37.06-4.54-21.5-89.5,12.5-134.5S153,158.22,142,157c-27-3-17.66,42.3-37.5,65.5C75,257,16,223,28,185Z" transform="translate(-26.41 -108.99)"/></svg>